<?xml version="1.0" encoding="utf-8"?>
<!-- Generator: Adobe Illustrator 16.0.0, SVG Export Plug-In . SVG Version: 6.00 Build 0)  -->
<!DOCTYPE svg PUBLIC "-//W3C//DTD SVG 1.1//EN" "http://www.w3.org/Graphics/SVG/1.1/DTD/svg11.dtd">
<svg xmlns="http://www.w3.org/2000/svg" xmlns:xlink="http://www.w3.org/1999/xlink" version="1.1" id="Layer_1" x="0px" y="0px" width="186.628px" height="187.142px" viewBox="0 0 186.628 187.142" xml:space="preserve">
<g>
	<polygon fill="#1A5EAB" points="178.885,93.571 186.628,86.581 177.94,80.81 184.558,72.746 175.104,68.337 180.438,59.375    170.431,56.437 174.359,46.775 164.025,45.365 166.472,35.226 156.042,35.367 156.958,24.978 146.665,26.663 146.03,16.252    136.103,19.448 133.923,9.249 124.583,13.892 120.901,4.134 112.364,10.127 107.26,1.033 99.715,8.236 93.314,0 86.914,8.236    79.37,1.033 74.263,10.127 65.727,4.134 62.043,13.893 52.703,9.25 50.525,19.449 40.596,16.254 39.961,26.665 29.668,24.979    30.584,35.37 20.154,35.229 22.602,45.367 12.268,46.777 16.196,56.438 6.189,59.376 11.522,68.34 2.069,72.747 8.688,80.809    0,86.581 7.743,93.571 0,100.561 8.688,106.333 2.07,114.396 11.523,118.805 6.19,127.767 16.198,130.705 12.269,140.368    22.604,141.777 20.157,151.916 30.587,151.774 29.671,162.164 39.964,160.479 40.599,170.889 50.526,167.692 52.706,177.894    62.046,173.25 65.727,183.007 74.264,177.015 79.37,186.109 86.914,178.906 93.314,187.142 99.715,178.906 107.259,186.109    112.365,177.014 120.902,183.007 124.586,173.249 133.925,177.893 136.104,167.692 146.032,170.888 146.667,160.477    156.96,162.162 156.044,151.772 166.474,151.913 164.026,141.774 174.36,140.364 170.432,130.703 180.438,127.766 175.105,118.802    184.559,114.395 177.94,106.333 186.628,100.561  "/>
</g>
<g>
	<defs>
		<circle id="SVGID_1_" cx="93.314" cy="93.571" r="80.525"/>
	</defs>
	<clipPath id="SVGID_2_">
		<use xlink:href="#SVGID_1_"/>
	</clipPath>
	<circle clip-path="url(#SVGID_2_)" fill="#E2C675" cx="93.383" cy="93.57" r="98.861"/>
</g>
<circle fill="none" stroke="#FFFFFF" stroke-width="0.5" stroke-miterlimit="10" cx="93.314" cy="93.571" r="82.237"/>
<circle fill="#1A5EAB" cx="93.314" cy="93.571" r="77.195"/>
<path fill="#FFFFFF" d="M93.314,166.053c-40.031,0-72.482-32.45-72.482-72.482c0-40.031,32.451-72.482,72.482-72.482  c40.03,0,72.482,32.452,72.482,72.482C165.797,133.603,133.345,166.053,93.314,166.053z M149.467,93.571  c0-31.012-25.141-56.152-56.152-56.152S37.162,62.559,37.162,93.571c0,31.013,25.141,56.153,56.152,56.153  S149.467,124.584,149.467,93.571z"/>
<g>
	<defs>
		<path id="SVGID_3_" d="M137.346,105.209c0,5.5-4.5,10-10,10H59.29c-5.5,0-10.001-4.5-10.001-10V82.002c0-5.5,4.501-10,10.001-10    h68.056c5.5,0,10,4.5,10,10V105.209z"/>
	</defs>
	<clipPath id="SVGID_4_">
		<use xlink:href="#SVGID_3_"/>
	</clipPath>
	<radialGradient id="SVGID_5_" cx="93.3828" cy="93.187" r="53.9918" gradientUnits="userSpaceOnUse">
		<stop offset="0" style="stop-color:#FFE89B"/>
		<stop offset="1" style="stop-color:#CDA349"/>
	</radialGradient>
	<rect x="42.063" y="63.683" clip-path="url(#SVGID_4_)" fill="url(#SVGID_5_)" width="102.639" height="59.009"/>
</g>
<g>
	<g>
		<path d="M58.025,102.83c1.997,1.023,5.065,2.046,8.231,2.046c3.41,0,5.211-1.413,5.211-3.556c0-2.045-1.559-3.215-5.504-4.627    c-5.455-1.9-9.01-4.919-9.01-9.693c0-5.601,4.676-9.887,12.42-9.887c3.702,0,6.429,0.779,8.377,1.656l-1.656,5.991    c-1.315-0.633-3.653-1.559-6.867-1.559c-3.215,0-4.773,1.461-4.773,3.166c0,2.094,1.851,3.02,6.088,4.627    c5.796,2.143,8.523,5.164,8.523,9.791c0,5.504-4.237,10.18-13.248,10.18c-3.75,0-7.452-0.975-9.303-1.998L58.025,102.83z"/>
		<path d="M84.33,102.83c1.997,1.023,5.065,2.046,8.231,2.046c3.409,0,5.212-1.413,5.212-3.556c0-2.045-1.559-3.215-5.504-4.627    c-5.455-1.9-9.01-4.919-9.01-9.693c0-5.601,4.676-9.887,12.42-9.887c3.702,0,6.429,0.779,8.378,1.656L102.4,84.76    c-1.315-0.633-3.653-1.559-6.867-1.559c-3.215,0-4.774,1.461-4.774,3.166c0,2.094,1.851,3.02,6.088,4.627    c5.796,2.143,8.523,5.164,8.523,9.791c0,5.504-4.237,10.18-13.248,10.18c-3.75,0-7.452-0.975-9.303-1.998L84.33,102.83z"/>
		<path d="M110.393,77.649h7.451v26.593h13.053v6.234h-20.504V77.649z"/>
	</g>
	<g>
		<path fill="#FFFFFF" d="M58.025,103.736c1.997,1.023,5.065,2.047,8.231,2.047c3.41,0,5.211-1.413,5.211-3.557    c0-2.045-1.559-3.214-5.504-4.627c-5.455-1.899-9.01-4.919-9.01-9.692c0-5.601,4.676-9.887,12.42-9.887    c3.702,0,6.429,0.779,8.377,1.656l-1.656,5.991c-1.315-0.633-3.653-1.559-6.867-1.559c-3.215,0-4.773,1.461-4.773,3.166    c0,2.094,1.851,3.02,6.088,4.627c5.796,2.143,8.523,5.163,8.523,9.79c0,5.504-4.237,10.18-13.248,10.18    c-3.75,0-7.452-0.975-9.303-1.997L58.025,103.736z"/>
		<path fill="#FFFFFF" d="M84.33,103.736c1.997,1.023,5.065,2.047,8.231,2.047c3.409,0,5.212-1.413,5.212-3.557    c0-2.045-1.559-3.214-5.504-4.627c-5.455-1.899-9.01-4.919-9.01-9.692c0-5.601,4.676-9.887,12.42-9.887    c3.702,0,6.429,0.779,8.378,1.656l-1.656,5.991c-1.315-0.633-3.653-1.559-6.867-1.559c-3.215,0-4.774,1.461-4.774,3.166    c0,2.094,1.851,3.02,6.088,4.627c5.796,2.143,8.523,5.163,8.523,9.79c0,5.504-4.237,10.18-13.248,10.18    c-3.75,0-7.452-0.975-9.303-1.997L84.33,103.736z"/>
		<path fill="#FFFFFF" d="M110.393,78.556h7.451v26.594h13.053v6.234h-20.504V78.556z"/>
	</g>
	<g>
		<g>
			<path fill="#3D3D3E" d="M58.025,103.34c1.997,1.023,5.065,2.047,8.231,2.047c3.41,0,5.211-1.413,5.211-3.557     c0-2.045-1.559-3.214-5.504-4.627c-5.455-1.899-9.01-4.919-9.01-9.692c0-5.601,4.676-9.887,12.42-9.887     c3.702,0,6.429,0.779,8.377,1.656l-1.656,5.991c-1.315-0.633-3.653-1.559-6.867-1.559c-3.215,0-4.773,1.461-4.773,3.166     c0,2.094,1.851,3.02,6.088,4.627c5.796,2.143,8.523,5.163,8.523,9.79c0,5.504-4.237,10.18-13.248,10.18     c-3.75,0-7.452-0.975-9.303-1.997L58.025,103.34z"/>
			<path fill="#3D3D3E" d="M84.33,103.34c1.997,1.023,5.065,2.047,8.231,2.047c3.409,0,5.212-1.413,5.212-3.557     c0-2.045-1.559-3.214-5.504-4.627c-5.455-1.899-9.01-4.919-9.01-9.692c0-5.601,4.676-9.887,12.42-9.887     c3.702,0,6.429,0.779,8.378,1.656l-1.656,5.991c-1.315-0.633-3.653-1.559-6.867-1.559c-3.215,0-4.774,1.461-4.774,3.166     c0,2.094,1.851,3.02,6.088,4.627c5.796,2.143,8.523,5.163,8.523,9.79c0,5.504-4.237,10.18-13.248,10.18     c-3.75,0-7.452-0.975-9.303-1.997L84.33,103.34z"/>
			<path fill="#3D3D3E" d="M110.393,78.159h7.451v26.594h13.053v6.234h-20.504V78.159z"/>
		</g>
	</g>
</g>
<g>
	<circle fill="none" cx="93.314" cy="93.571" r="64.187"/>
	<path d="M28.103,76.141l-0.009,0.034l0.445,2.103l-1.824-0.108l-0.599-2.848l0.532-1.923l10.871,3.005l-0.601,2.174L28.103,76.141z   "/>
	<path d="M35.239,66.363c3.744,1.525,4.842,3.565,4.155,5.252c-0.93,2.282-3.863,1.986-6.546,0.893   c-3.005-1.224-5.006-3.164-4.123-5.333C29.708,64.765,32.749,65.348,35.239,66.363z M33.664,70.367   c2.429,1.027,3.663,1.173,3.951,0.466c0.268-0.659-0.797-1.355-3.191-2.331c-2.233-0.91-3.636-1.238-3.911-0.563   C30.244,68.599,31.231,69.395,33.664,70.367z"/>
	<path d="M38.814,59.778c3.541,1.956,4.393,4.112,3.512,5.708c-1.192,2.158-4.072,1.52-6.61,0.118   c-2.842-1.569-4.603-3.732-3.47-5.784C33.505,57.541,36.458,58.477,38.814,59.778z M36.778,63.572   c2.293,1.306,3.501,1.596,3.871,0.928c0.344-0.624-0.632-1.44-2.897-2.691c-2.112-1.167-3.468-1.657-3.82-1.019   C33.588,61.414,34.475,62.32,36.778,63.572z"/>
	<path d="M40.027,54.04c1.904,1.453,2.123,2.996,1.428,3.906c-0.958,1.255-2.745,0.765-4.097-0.267   c-1.462-1.116-2.292-2.775-1.396-3.948C36.983,52.393,38.786,53.092,40.027,54.04z M38.244,56.433   c1.148,0.898,1.919,1.203,2.246,0.776c0.326-0.428-0.23-1.071-1.348-1.924c-1.048-0.8-1.901-1.255-2.238-0.814   C36.598,54.872,37.112,55.57,38.244,56.433z M44.822,61.171l-5.502-11.84l0.716-0.938l5.512,11.826L44.822,61.171z M47.483,51.85   c1.904,1.453,2.123,2.996,1.428,3.906c-0.958,1.255-2.758,0.754-4.097-0.267c-1.448-1.105-2.277-2.765-1.383-3.937   C44.453,50.214,46.255,50.913,47.483,51.85z M45.7,54.244c1.148,0.898,1.93,1.189,2.246,0.776c0.316-0.414-0.23-1.071-1.348-1.924   c-1.048-0.8-1.888-1.245-2.225-0.803C44.068,52.692,44.569,53.38,45.7,54.244z"/>
	<path d="M50.825,50.192c0.522-0.119,1.244-0.51,1.734-0.95c0.8-0.718,0.817-1.479,0.307-2.046   c-0.567-0.633-1.232-0.595-2.397-0.413c-1.836,0.343-3.11-0.168-3.816-0.956c-1.251-1.394-1.364-3.39,0.456-5.023   c0.568-0.509,1.25-0.841,1.646-0.917l1.038,1.702c-0.384,0.065-0.886,0.259-1.376,0.699c-0.723,0.648-0.678,1.4-0.261,1.865   c0.463,0.517,0.965,0.556,2.417,0.278c1.774-0.333,2.988,0.162,3.81,1.079c1.425,1.588,1.188,3.688-0.516,5.216   c-0.697,0.625-1.543,1.058-1.978,1.146L50.825,50.192z"/>
	<path d="M58.336,40.536l-2.169,1.561l1.844,2.563l2.451-1.763l1.155,1.605l-4.295,3.09L50.492,38.1l4.127-2.969l1.155,1.605   l-2.282,1.642l1.571,2.183l2.169-1.561L58.336,40.536z"/>
	<path d="M67.287,41.05c-0.209,0.298-0.708,0.721-1.402,1.114c-2.596,1.473-5.049,0.031-6.684-2.851   c-2.174-3.833-0.894-6.534,1.083-7.655c0.694-0.394,1.254-0.532,1.527-0.507l0.609,1.848c-0.286,0.023-0.594,0.078-1.032,0.326   c-1.117,0.633-1.58,2.173-0.15,4.693c1.378,2.43,2.838,2.858,4.045,2.173c0.332-0.188,0.667-0.478,0.865-0.69L67.287,41.05z"/>
	<path d="M65.503,29.265l2.907,7.024c0.657,1.588,1.337,1.87,1.883,1.644c0.609-0.252,0.863-0.864,0.186-2.5l-2.907-7.024   l2.101-0.87l2.755,6.655c1.148,2.774,0.729,4.713-1.355,5.576c-2.261,0.936-3.787-0.254-4.909-2.965l-2.761-6.671L65.503,29.265z"/>
	<path d="M72.42,26.822c0.652-0.316,1.501-0.631,2.34-0.853c1.207-0.319,2.325-0.436,3.24,0.04c0.852,0.438,1.253,1.14,1.511,2.112   c0.319,1.208,0.021,2.453-0.994,3.296l0.009,0.033c0.851,0.098,1.428,0.717,1.965,1.866c0.551,1.2,1.222,2.512,1.534,2.878   l-2.297,0.608c-0.218-0.283-0.772-1.357-1.268-2.553c-0.574-1.355-1.033-1.665-1.771-1.469l-0.318,0.084l1.194,4.511l-2.197,0.582   L72.42,26.822z M75.922,31.171l0.386-0.102c0.956-0.253,1.305-1.171,1.043-2.161c-0.253-0.956-0.821-1.541-1.819-1.313   c-0.185,0.049-0.398,0.123-0.502,0.205L75.922,31.171z"/>
	<path d="M86.897,30.369l-2.646,0.371l0.439,3.127l2.989-0.419l0.275,1.959l-5.24,0.735l-1.625-11.581l5.034-0.706l0.275,1.958   l-2.784,0.391l0.374,2.663l2.646-0.371L86.897,30.369z"/>
	<path d="M92.78,25.621l-2.065-0.033l0.034-2.099l6.419,0.102l-0.033,2.099l-2.082-0.033L94.9,35.25l-2.272-0.036L92.78,25.621z"/>
	<path d="M99.107,23.882c0.724-0.048,1.629-0.021,2.49,0.088c1.239,0.157,2.318,0.469,2.988,1.253   c0.625,0.726,0.734,1.527,0.607,2.525c-0.157,1.239-0.901,2.282-2.158,2.682l-0.005,0.035c0.753,0.41,1.054,1.2,1.121,2.468   c0.06,1.319,0.188,2.787,0.341,3.244l-2.357-0.299c-0.098-0.344-0.207-1.547-0.217-2.843c-0.023-1.472-0.333-1.931-1.09-2.027   l-0.328-0.042l-0.586,4.63l-2.256-0.286L99.107,23.882z M100.721,29.229l0.396,0.05c0.98,0.125,1.648-0.595,1.777-1.611   c0.125-0.981-0.182-1.737-1.192-1.9c-0.189-0.024-0.415-0.035-0.542,0.001L100.721,29.229z"/>
	<path d="M107.58,34.226l-1.174,2.457l-2.134-0.552l5.384-10.688l2.638,0.683l-0.729,11.893l-2.135-0.553l0.184-2.713L107.58,34.226   z M109.854,32.986l0.243-2.464c0.061-0.719,0.201-1.884,0.297-2.666l-0.051-0.013c-0.313,0.726-0.785,1.858-1.073,2.483   l-1.028,2.243L109.854,32.986z"/>
	<path d="M112.131,38.222l4.422-10.829l1.928,0.787l-0.061,4.924c-0.02,0.967-0.061,2.581-0.136,3.638l0.032,0.013   c0.401-1.167,1.024-3.106,1.838-5.099l0.979-2.394l1.848,0.755l-4.423,10.829l-1.929-0.787l0.025-4.789   c0.021-1.06,0.08-2.629,0.239-3.708l-0.032-0.013c-0.398,1.112-1,2.816-1.886,4.985l-0.997,2.442L112.131,38.222z"/>
	<path d="M120.7,39.359c0.28,0.457,0.883,1.015,1.457,1.338c0.938,0.528,1.664,0.299,2.038-0.366   c0.418-0.741,0.168-1.359-0.379-2.404c-0.914-1.63-0.839-3.002-0.319-3.924c0.919-1.633,2.774-2.381,4.907-1.181   c0.664,0.375,1.197,0.914,1.398,1.266l-1.28,1.53c-0.185-0.343-0.53-0.756-1.104-1.08c-0.847-0.477-1.545-0.192-1.852,0.352   c-0.34,0.605-0.217,1.093,0.513,2.379c0.886,1.575,0.806,2.884,0.202,3.958c-1.048,1.86-3.113,2.31-5.109,1.186   c-0.816-0.46-1.499-1.123-1.721-1.507L120.7,39.359z"/>
	<path d="M128.289,43.563l-1.992,1.853l-1.781-1.296l8.928-7.961l2.201,1.603l-5.043,10.789l-1.781-1.297l1.166-2.455   L128.289,43.563z M130.859,43.245l1.131-2.202c0.32-0.646,0.877-1.678,1.253-2.37l-0.042-0.031   c-0.558,0.56-1.412,1.439-1.908,1.915l-1.78,1.708L130.859,43.245z"/>
	<path d="M135.166,52.557c-0.348-0.107-0.904-0.452-1.492-0.991c-2.203-2.016-1.588-4.794,0.65-7.24   c2.977-3.251,5.941-2.867,7.619-1.332c0.588,0.539,0.893,1.029,0.953,1.297l-1.57,1.15c-0.109-0.265-0.258-0.542-0.629-0.881   c-0.947-0.867-2.555-0.833-4.512,1.305c-1.887,2.061-1.844,3.583-0.82,4.52c0.282,0.258,0.66,0.487,0.924,0.61L135.166,52.557z"/>
	<path d="M143.865,48.175l-1.355-1.558l1.584-1.377l4.213,4.844l-1.584,1.377l-1.367-1.571l-7.239,6.295l-1.491-1.715   L143.865,48.175z"/>
	<path d="M150.707,53.402l-9.473,6.87l-1.334-1.841l9.471-6.87L150.707,53.402z"/>
	<path d="M150.876,64.439c-3.81,2.217-6.14,1.766-7.257-0.154c-1.336-2.295,0.57-4.609,3.346-6.224   c2.76-1.606,5.781-1.898,7.082,0.336C155.469,60.843,153.186,63.096,150.876,64.439z M148.121,60.12   c-2.295,1.335-3.212,2.451-2.749,3.246c0.479,0.825,2.163,0.267,4.218-0.929c1.77-1.03,3.219-2.234,2.703-3.119   C151.84,58.539,150.296,58.854,148.121,60.12z"/>
	<path d="M145.963,68.169l10.819-4.453l0.792,1.926l-3.55,3.414c-0.702,0.665-1.882,1.769-2.687,2.458l0.014,0.032   c1.113-0.533,2.932-1.451,4.922-2.27l2.392-0.984l0.76,1.846l-10.819,4.453l-0.793-1.926l3.43-3.345   c0.77-0.73,1.929-1.789,2.809-2.433l-0.014-0.032c-1.071,0.497-2.707,1.265-4.875,2.157l-2.439,1.004L145.963,68.169z"/>
	<path d="M151.164,75.059c-0.129,0.52-0.104,1.34,0.068,1.977c0.283,1.038,0.955,1.394,1.691,1.194   c0.82-0.223,1.086-0.834,1.445-1.957c0.52-1.795,1.549-2.704,2.57-2.981c1.807-0.491,3.641,0.305,4.282,2.665   c0.2,0.737,0.19,1.494,0.08,1.884l-1.987,0.162c0.115-0.373,0.167-0.908-0.006-1.544c-0.254-0.938-0.946-1.235-1.549-1.071   c-0.67,0.182-0.93,0.612-1.335,2.034c-0.499,1.735-1.487,2.597-2.676,2.92c-2.059,0.559-3.829-0.596-4.429-2.805   c-0.246-0.904-0.252-1.855-0.135-2.282L151.164,75.059z"/>
</g>
<g>
	<circle fill="none" cx="93.314" cy="93.571" r="64.187"/>
	<path d="M61.164,142.564c0.624,0.205,1.416,0.569,2.163,1.009c1.167,0.686,1.982,1.387,2.279,2.387   c0.291,0.875,0.067,1.87-0.434,2.723c-0.642,1.092-1.418,1.661-2.276,1.922c-1.015,0.288-2.208-0.01-3.015-0.484   c-0.134-0.079-0.269-0.158-0.389-0.229l-2.206,3.753l-1.959-1.151L61.164,142.564z M60.433,148.291   c0.072,0.083,0.177,0.145,0.296,0.215c0.987,0.58,1.849,0.141,2.402-0.802c0.519-0.882,0.564-1.78-0.348-2.316   c-0.179-0.105-0.376-0.182-0.522-0.207L60.433,148.291z"/>
	<path d="M71.714,153.929c-1.725,4.054-3.861,5.087-5.904,4.218c-2.442-1.039-2.299-4.032-1.043-6.985   c1.25-2.937,3.494-4.979,5.873-3.967C73.241,148.301,72.759,151.471,71.714,153.929z M66.924,152.117   c-1.039,2.441-1.105,3.884-0.26,4.243c0.878,0.374,1.892-1.08,2.822-3.267c0.801-1.883,1.241-3.713,0.299-4.114   C68.955,148.627,67.909,149.803,66.924,152.117z"/>
	<path d="M71.887,157.876c0.377,0.38,1.091,0.785,1.724,0.969c1.033,0.299,1.687-0.09,1.899-0.823   c0.236-0.816-0.148-1.361-0.919-2.252c-1.263-1.377-1.504-2.729-1.209-3.745c0.521-1.8,2.154-2.952,4.504-2.272   c0.733,0.212,1.375,0.615,1.65,0.911l-0.895,1.781c-0.259-0.291-0.688-0.614-1.322-0.798c-0.933-0.27-1.547,0.167-1.721,0.767   c-0.193,0.666,0.039,1.112,1.043,2.198c1.223,1.328,1.444,2.621,1.102,3.804c-0.593,2.05-2.5,2.961-4.699,2.324   c-0.9-0.261-1.715-0.749-2.02-1.072L71.887,157.876z"/>
	<path d="M83.171,151.045l-2.242,11.478l-2.23-0.436l2.242-11.478L83.171,151.045z"/>
	<path d="M85.806,153.559l-2.054-0.214l0.218-2.089l6.385,0.666l-0.218,2.089l-2.071-0.216l-0.996,9.543l-2.261-0.235   L85.806,153.559z"/>
	<path d="M93.424,151.92l-0.196,11.693l-2.272-0.038l0.195-11.693L93.424,151.92z"/>
	<path d="M97.557,163.49l-3.529-11.458l2.509-0.196l1.226,4.97c0.306,1.229,0.66,2.646,0.923,4.001l0.035-0.002   c0.047-1.396,0.127-2.813,0.232-4.145l0.404-5.046l2.492-0.195l-1.75,11.871L97.557,163.49z"/>
	<path d="M108.384,156.763l-2.622,0.515l0.607,3.099l2.963-0.581l0.382,1.941l-5.194,1.02l-2.252-11.478l4.989-0.979l0.382,1.941   l-2.76,0.541l0.519,2.64l2.622-0.515L108.384,156.763z"/>
	<path d="M113.863,158.161c0.529,0.085,1.344-0.007,1.964-0.231c1.012-0.366,1.312-1.065,1.052-1.783   c-0.289-0.799-0.92-1.014-2.068-1.28c-1.832-0.37-2.821-1.322-3.182-2.316c-0.638-1.762,0.006-3.655,2.305-4.488   c0.719-0.26,1.475-0.312,1.871-0.234l0.324,1.968c-0.381-0.084-0.918-0.092-1.538,0.133c-0.913,0.33-1.153,1.044-0.94,1.632   c0.236,0.652,0.687,0.877,2.137,1.163c1.771,0.355,2.711,1.27,3.13,2.428c0.727,2.007-0.28,3.865-2.433,4.645   c-0.881,0.319-1.828,0.403-2.264,0.321L113.863,158.161z"/>
	<path d="M120.734,155.556c0.535,0.027,1.336-0.153,1.928-0.443c0.967-0.475,1.189-1.202,0.853-1.888   c-0.374-0.764-1.025-0.908-2.196-1.049c-1.861-0.169-2.949-1.008-3.416-1.958c-0.825-1.683-0.392-3.635,1.805-4.713   c0.686-0.336,1.432-0.471,1.836-0.437l0.536,1.921c-0.388-0.042-0.924,0.009-1.516,0.299c-0.872,0.429-1.033,1.165-0.759,1.726   c0.307,0.623,0.779,0.797,2.252,0.925c1.8,0.161,2.834,0.968,3.377,2.074c0.939,1.916,0.141,3.874-1.915,4.883   c-0.841,0.413-1.774,0.6-2.216,0.565L120.734,155.556z"/>
	<path d="M122.463,144.166l1.924-1.214l5.214,8.265l2.54-1.603l1.027,1.63l-4.462,2.815L122.463,144.166z"/>
</g>
<g>
	<defs>
		<polygon id="SVGID_6_" points="29.044,86.786 30.952,91.66 36.178,91.968 32.131,95.289 33.453,100.355 29.044,97.533     24.635,100.355 25.957,95.289 21.91,91.968 27.136,91.66   "/>
	</defs>
	<clipPath id="SVGID_7_">
		<use xlink:href="#SVGID_6_"/>
	</clipPath>
	<ellipse clip-path="url(#SVGID_7_)" fill="#E2C675" cx="30.482" cy="95.042" rx="14.363" ry="14.167"/>
</g>
<polygon fill="#FFFFFF" points="93.383,40.858 94.845,44.594 98.85,44.83 95.748,47.375 96.762,51.258 93.383,49.095 90.003,51.258   91.016,47.375 87.915,44.83 91.92,44.594 "/>
<g>
	<polygon fill="#FFFFFF" points="93.383,55.936 94.845,59.671 98.85,59.907 95.748,62.453 96.762,66.335 93.383,64.172    90.003,66.335 91.016,62.453 87.915,59.907 91.92,59.671  "/>
	<polygon fill="#FFFFFF" points="118.32,55.936 119.782,59.671 123.787,59.907 120.686,62.453 121.699,66.335 118.32,64.172    114.94,66.335 115.953,62.453 112.853,59.907 116.857,59.671  "/>
	<polygon fill="#FFFFFF" points="68.445,55.936 69.907,59.671 73.912,59.907 70.811,62.453 71.824,66.335 68.445,64.172    65.065,66.335 66.078,62.453 62.978,59.907 66.982,59.671  "/>
</g>
<g>
	<polygon fill="#FFFFFF" points="105.883,48.396 107.345,52.132 111.35,52.368 108.248,54.913 109.262,58.796 105.883,56.632    102.503,58.796 103.516,54.913 100.415,52.368 104.42,52.132  "/>
	<polygon fill="#FFFFFF" points="80.633,48.396 82.095,52.132 86.1,52.368 82.998,54.913 84.012,58.796 80.633,56.632    77.253,58.796 78.266,54.913 75.165,52.368 79.17,52.132  "/>
</g>
<g>
	<defs>
		<polygon id="SVGID_8_" points="157.578,86.786 159.486,91.66 164.711,91.968 160.665,95.289 161.986,100.355 157.578,97.533     153.168,100.355 154.49,95.289 150.443,91.968 155.67,91.66   "/>
	</defs>
	<clipPath id="SVGID_9_">
		<use xlink:href="#SVGID_8_"/>
	</clipPath>
	<ellipse clip-path="url(#SVGID_9_)" fill="#E2C675" cx="156.815" cy="94.375" rx="14.363" ry="14.167"/>
</g>
<g>
	<path fill="#FFFFFF" d="M102.521,130.178v13.729H84.243v-13.729h2.356v-4.008c0-0.92,0.176-1.782,0.528-2.586   c0.352-0.803,0.826-1.503,1.422-2.099s1.295-1.069,2.099-1.421c0.803-0.353,1.665-0.528,2.586-0.528h0.108h0.135   c0.921,0,1.783,0.176,2.585,0.528c0.804,0.352,1.504,0.825,2.1,1.421s1.069,1.296,1.422,2.099c0.352,0.804,0.527,1.666,0.527,2.586   v4.008H102.521z M96.781,126.17c0-0.45-0.086-0.875-0.258-1.272c-0.172-0.396-0.406-0.744-0.704-1.042s-0.649-0.537-1.056-0.718   s-0.835-0.271-1.287-0.271h-0.081h-0.163c-0.47,0-0.903,0.09-1.3,0.271c-0.397,0.181-0.75,0.42-1.056,0.718   c-0.307,0.298-0.546,0.646-0.718,1.042c-0.171,0.397-0.257,0.822-0.257,1.272v4.008h6.878V126.17z M94.425,136.947   c0.307-0.18,0.556-0.428,0.745-0.744c0.189-0.315,0.283-0.663,0.283-1.043c0-0.577-0.198-1.064-0.596-1.462   c-0.396-0.396-0.884-0.596-1.461-0.596c-0.578,0-1.07,0.199-1.476,0.596c-0.406,0.397-0.609,0.885-0.609,1.462   c0,0.38,0.095,0.728,0.285,1.043c0.189,0.316,0.438,0.564,0.745,0.744l-1.029,4.441h4.143L94.425,136.947z"/>
</g>
<circle fill="none" stroke="#FFFFFF" stroke-width="0.5" stroke-miterlimit="10" cx="93.314" cy="93.571" r="75.612"/>
<g>
</g>
<g>
</g>
<g>
</g>
<g>
</g>
<g>
</g>
<g>
</g>
</svg>
